<svg xmlns="http://www.w3.org/2000/svg" viewBox="0 0 1200 1500" width="1200" height="1500">
<!-- Linde Sphere placeholder illustration: original artwork generated by scripts/placeholder-art.ts -->

<rect width="1200" height="1500" fill="#F4F9FB"/>
<polygon points="600,560 1188.9,900 600,1240 11.1,900" fill="#F4F7F9" stroke="#13232F" stroke-opacity="0.07" stroke-width="2" stroke-linejoin="round"/>
<polyline points="673.6,602.5 84.7,942.5" fill="none" stroke="#E2E9EE" stroke-width="2" stroke-linecap="round" stroke-linejoin="round"/>
<polyline points="526.4,602.5 1115.3,942.5" fill="none" stroke="#E2E9EE" stroke-width="2" stroke-linecap="round" stroke-linejoin="round"/>
<polyline points="747.2,645 158.3,985" fill="none" stroke="#E2E9EE" stroke-width="2" stroke-linecap="round" stroke-linejoin="round"/>
<polyline points="452.8,645 1041.7,985" fill="none" stroke="#E2E9EE" stroke-width="2" stroke-linecap="round" stroke-linejoin="round"/>
<polyline points="820.8,687.5 231.9,1027.5" fill="none" stroke="#E2E9EE" stroke-width="2" stroke-linecap="round" stroke-linejoin="round"/>
<polyline points="379.2,687.5 968.1,1027.5" fill="none" stroke="#E2E9EE" stroke-width="2" stroke-linecap="round" stroke-linejoin="round"/>
<polyline points="894.4,730 305.6,1070" fill="none" stroke="#E2E9EE" stroke-width="2" stroke-linecap="round" stroke-linejoin="round"/>
<polyline points="305.6,730 894.4,1070" fill="none" stroke="#E2E9EE" stroke-width="2" stroke-linecap="round" stroke-linejoin="round"/>
<polyline points="968.1,772.5 379.2,1112.5" fill="none" stroke="#E2E9EE" stroke-width="2" stroke-linecap="round" stroke-linejoin="round"/>
<polyline points="231.9,772.5 820.8,1112.5" fill="none" stroke="#E2E9EE" stroke-width="2" stroke-linecap="round" stroke-linejoin="round"/>
<polyline points="1041.7,815 452.8,1155" fill="none" stroke="#E2E9EE" stroke-width="2" stroke-linecap="round" stroke-linejoin="round"/>
<polyline points="158.3,815 747.2,1155" fill="none" stroke="#E2E9EE" stroke-width="2" stroke-linecap="round" stroke-linejoin="round"/>
<polyline points="1115.3,857.5 526.4,1197.5" fill="none" stroke="#E2E9EE" stroke-width="2" stroke-linecap="round" stroke-linejoin="round"/>
<polyline points="84.7,857.5 673.6,1197.5" fill="none" stroke="#E2E9EE" stroke-width="2" stroke-linecap="round" stroke-linejoin="round"/>
<polygon points="11.1,900 600,560 600,100 11.1,440" fill="#E6EEF2" stroke="#13232F" stroke-opacity="0.07" stroke-width="2" stroke-linejoin="round"/>
<polygon points="600,560 1188.9,900 1188.9,440 600,100" fill="#D8E4EB" stroke="#13232F" stroke-opacity="0.07" stroke-width="2" stroke-linejoin="round"/>
<polygon points="11.1,900 600,560 600,534 11.1,874" fill="#C9D6DE"/>
<polygon points="600,560 1188.9,900 1188.9,874 600,534" fill="#C9D6DE"/>
<polygon points="688.3,419 866.7,522 866.7,376 688.3,273" fill="#46596A"/>
<polygon points="695.3,415 859.8,510 859.8,380 695.3,285" fill="#FFFFFF"/>
<polyline points="709.1,390.5 807.8,447.5" fill="none" stroke="#2B8A7E" stroke-width="8" stroke-linecap="round" stroke-linejoin="round"/>
<polyline points="709.1,358 832.5,429.3" fill="none" stroke="#2B8A7E" stroke-width="8" stroke-linecap="round" stroke-linejoin="round"/>
<polyline points="709.1,325.5 783.2,368.3" fill="none" stroke="#2B8A7E" stroke-width="8" stroke-linecap="round" stroke-linejoin="round"/>
<polygon points="929.1,600 951.6,613 951.6,587 929.1,574" fill="#2B8A7E"/>
<polygon points="972.4,625 994.9,638 994.9,612 972.4,599" fill="#2B8A7E"/>
<polygon points="130.6,831 281.3,744 281.3,472 130.6,559" fill="#46596A"/>
<polygon points="141,825 270.9,750 270.9,490 141,565" fill="#AAB6BF"/>
<polygon points="203.4,769 208.6,766 208.6,536 203.4,539" fill="#8C9AA5"/>
<polygon points="149.7,520 262.3,455 262.3,405 149.7,470" fill="#2B8A7E"/>
<polyline points="186.9,473.5 221.5,453.5" fill="none" stroke="#FFFFFF" stroke-width="6" stroke-linecap="round" stroke-linejoin="round"/>
<polyline points="207.7,448.5 221.5,453.5 207.7,474.5" fill="none" stroke="#FFFFFF" stroke-width="6" stroke-linecap="round" stroke-linejoin="round"/>
<polygon points="691.8,857.5 777.5,907 777.5,852 691.8,802.5" fill="#D5DCE1" stroke="#13232F" stroke-opacity="0.07" stroke-width="2" stroke-linejoin="round"/>
<polygon points="777.5,907 941.2,812.5 941.2,757.5 777.5,852" fill="#AAB6BF" stroke="#13232F" stroke-opacity="0.07" stroke-width="2" stroke-linejoin="round"/>
<polygon points="855.5,708 941.2,757.5 777.5,852 691.8,802.5" fill="#EEF2F5" stroke="#13232F" stroke-opacity="0.07" stroke-width="2" stroke-linejoin="round"/>
<polygon points="677.9,805 773.2,860 773.2,838 677.9,783" fill="#EEF3F6" stroke="#13232F" stroke-opacity="0.07" stroke-width="2" stroke-linejoin="round"/>
<polygon points="773.2,860 955.1,755 955.1,733 773.2,838" fill="#D6E3EA" stroke="#13232F" stroke-opacity="0.07" stroke-width="2" stroke-linejoin="round"/>
<polygon points="859.8,678 955.1,733 773.2,838 677.9,783" fill="#FFFFFF" stroke="#13232F" stroke-opacity="0.07" stroke-width="2" stroke-linejoin="round"/>
<polygon points="829.5,710.5 898.8,750.5 898.8,738.5 829.5,698.5" fill="#A9C8D4" stroke="#13232F" stroke-opacity="0.07" stroke-width="2" stroke-linejoin="round"/>
<polygon points="898.8,750.5 933.4,730.5 933.4,718.5 898.8,738.5" fill="#82ADBE" stroke="#13232F" stroke-opacity="0.07" stroke-width="2" stroke-linejoin="round"/>
<polygon points="864.1,678.5 933.4,718.5 898.8,738.5 829.5,698.5" fill="#D2E3EA" stroke="#13232F" stroke-opacity="0.07" stroke-width="2" stroke-linejoin="round"/>
<polygon points="319.4,892.5 405.1,942 405.1,887 319.4,837.5" fill="#D5DCE1" stroke="#13232F" stroke-opacity="0.07" stroke-width="2" stroke-linejoin="round"/>
<polygon points="405.1,942 568.8,847.5 568.8,792.5 405.1,887" fill="#AAB6BF" stroke="#13232F" stroke-opacity="0.07" stroke-width="2" stroke-linejoin="round"/>
<polygon points="483.1,743 568.8,792.5 405.1,887 319.4,837.5" fill="#EEF2F5" stroke="#13232F" stroke-opacity="0.07" stroke-width="2" stroke-linejoin="round"/>
<polygon points="305.6,840 400.8,895 400.8,873 305.6,818" fill="#EEF3F6" stroke="#13232F" stroke-opacity="0.07" stroke-width="2" stroke-linejoin="round"/>
<polygon points="400.8,895 582.7,790 582.7,768 400.8,873" fill="#D6E3EA" stroke="#13232F" stroke-opacity="0.07" stroke-width="2" stroke-linejoin="round"/>
<polygon points="487.4,713 582.7,768 400.8,873 305.6,818" fill="#FFFFFF" stroke="#13232F" stroke-opacity="0.07" stroke-width="2" stroke-linejoin="round"/>
<polygon points="457.1,745.5 526.4,785.5 526.4,773.5 457.1,733.5" fill="#A9C8D4" stroke="#13232F" stroke-opacity="0.07" stroke-width="2" stroke-linejoin="round"/>
<polygon points="526.4,785.5 561,765.5 561,753.5 526.4,773.5" fill="#82ADBE" stroke="#13232F" stroke-opacity="0.07" stroke-width="2" stroke-linejoin="round"/>
<polygon points="491.7,713.5 561,753.5 526.4,773.5 457.1,733.5" fill="#D2E3EA" stroke="#13232F" stroke-opacity="0.07" stroke-width="2" stroke-linejoin="round"/>
<polygon points="652,985 712.6,1020 712.6,990 652,955" fill="#5A6B79" stroke="#13232F" stroke-opacity="0.07" stroke-width="2" stroke-linejoin="round"/>
<polygon points="712.6,1020 773.2,985 773.2,955 712.6,990" fill="#46596A" stroke="#13232F" stroke-opacity="0.07" stroke-width="2" stroke-linejoin="round"/>
<polygon points="712.6,920 773.2,955 712.6,990 652,955" fill="#7D8C98" stroke="#13232F" stroke-opacity="0.07" stroke-width="2" stroke-linejoin="round"/>
<path d="M690.5 805 L690.5 955 A22 12.7 0 0 0 734.6 955 L734.6 805 Z" fill="#80BAB2" stroke="#13232F" stroke-opacity="0.07" stroke-width="2" stroke-linejoin="round"/>
<path d="M712.6 817.7 L712.6 967.7 A22 12.7 0 0 0 734.6 955 L734.6 805 A22 12.7 0 0 1 712.6 817.7 Z" fill="#55A298"/>
<ellipse cx="712.6" cy="805" rx="22" ry="12.7" fill="#B5D8D3" stroke="#13232F" stroke-opacity="0.07" stroke-width="2" stroke-linejoin="round"/>
<polygon points="418.1,1060 617.3,1175 617.3,1070 418.1,955" fill="#A9C8D4" stroke="#13232F" stroke-opacity="0.07" stroke-width="2" stroke-linejoin="round"/>
<polygon points="617.3,1175 695.3,1130 695.3,1025 617.3,1070" fill="#82ADBE" stroke="#13232F" stroke-opacity="0.07" stroke-width="2" stroke-linejoin="round"/>
<polygon points="496.1,910 695.3,1025 617.3,1070 418.1,955" fill="#D2E3EA" stroke="#13232F" stroke-opacity="0.07" stroke-width="2" stroke-linejoin="round"/>
<polygon points="470.1,970 504.7,990 504.7,940 470.1,920" fill="#5A6B79" stroke="#13232F" stroke-opacity="0.07" stroke-width="2" stroke-linejoin="round"/>
<polygon points="504.7,990 556.7,960 556.7,910 504.7,940" fill="#46596A" stroke="#13232F" stroke-opacity="0.07" stroke-width="2" stroke-linejoin="round"/>
<polygon points="522.1,890 556.7,910 504.7,940 470.1,920" fill="#7D8C98" stroke="#13232F" stroke-opacity="0.07" stroke-width="2" stroke-linejoin="round"/>
</svg>
